<?xml version="1.0" encoding="UTF-8" standalone="no"?>
<!DOCTYPE svg PUBLIC "-//W3C//DTD SVG 20010904//EN"
              "http://www.w3.org/TR/2001/REC-SVG-20010904/DTD/svg10.dtd">

<svg xmlns="http://www.w3.org/2000/svg"
     width="5.26042in" height="2.46875in"
     viewBox="0 0 505 237">
  <path id="Unbenannt"
        fill="none" stroke="black" stroke-width="1"
        d="M 305.09,102.91
           C 305.09,102.91 311.01,105.98 311.01,105.98
             311.01,105.98 312.99,110.02 312.99,110.02
             312.99,110.02 312.07,149.00 312.07,149.00
             312.07,149.00 309.04,153.02 309.04,153.02
             309.04,153.02 305.07,155.02 305.07,155.02
             305.07,155.02 300.04,152.98 300.04,152.98
             300.04,152.98 297.00,148.98 297.00,148.98
             297.00,148.98 296.98,110.02 296.98,110.02
             296.98,110.02 299.04,106.02 299.04,106.02
             299.04,106.02 305.09,102.91 305.09,102.91 Z
           M 14.00,14.00
           C 14.00,14.00 491.00,14.00 491.00,14.00
             491.00,14.00 491.00,224.00 491.00,224.00
             491.00,224.00 14.00,224.00 14.00,224.00
             14.00,224.00 14.00,14.00 14.00,14.00 Z
           M 62.16,55.69
           C 62.16,55.69 58.00,56.00 58.00,56.00
             58.00,56.00 59.00,57.00 59.00,57.00
             59.00,57.00 62.16,55.69 62.16,55.69 Z
           M 178.96,62.07
           C 178.96,62.07 147.56,100.19 147.56,100.19
             147.56,100.19 119.04,65.04 119.04,65.04
             119.09,65.04 103.96,82.05 99.20,88.00
             97.59,90.02 90.04,99.86 90.00,99.82
             90.04,99.82 83.46,91.32 81.60,89.00
             76.64,82.80 59.27,63.00 59.18,63.00
             59.18,63.00 59.83,83.00 59.83,83.00
             59.83,83.00 64.17,131.00 64.17,131.00
             64.17,131.00 66.00,149.00 66.00,149.00
             66.00,149.00 172.00,149.00 172.00,149.00
             172.00,149.00 173.83,130.00 173.83,130.00
             173.83,130.00 176.17,100.00 176.17,100.00
             176.17,100.00 178.96,62.07 178.96,62.07 Z
           M 286.98,71.00
           C 287.00,73.69 287.03,79.75 287.03,82.98
             290.03,82.97 291.33,83.00 293.23,82.98
             294.27,82.97 298.34,83.02 300.00,82.98
             300.00,81.08 299.98,73.44 300.00,71.03
             296.89,71.00 289.39,70.97 286.98,71.00 Z
           M 323.04,71.02
           C 318.36,71.02 312.04,70.93 310.00,70.98
             309.91,72.93 309.98,80.87 309.96,82.93
             312.51,82.93 321.53,82.96 323.02,83.00
             323.02,83.00 323.04,71.02 323.04,71.02 Z
           M 299.00,90.30
           C 281.69,95.82 283.00,109.49 283.00,124.00
             283.00,124.00 283.00,146.00 283.00,146.00
             283.06,157.57 290.91,168.06 303.00,168.90
             312.70,169.58 320.69,164.89 324.65,156.00
             327.94,148.64 327.00,139.02 327.00,131.00
             327.00,118.45 329.27,102.55 317.96,93.93
             315.49,92.04 313.10,90.70 310.00,90.30
             306.88,89.72 302.14,89.96 299.00,90.30 Z
           M 436.00,142.00
           C 435.97,145.02 436.15,148.28 434.26,150.81
             431.46,154.68 425.72,154.82 423.12,150.81
             421.29,147.91 422.00,141.51 421.96,138.00
             421.96,138.00 421.96,115.00 421.96,115.00
             421.83,110.44 422.44,105.47 428.00,104.54
             436.38,103.14 435.13,115.03 437.60,116.98
             438.77,117.90 440.59,117.92 442.00,117.98
             443.87,118.06 447.78,118.20 449.26,117.01
             453.73,113.39 448.34,100.54 445.47,97.09
             436.95,86.82 419.64,87.63 411.56,98.04
             407.44,103.33 407.01,108.62 407.00,115.00
             406.99,122.06 406.35,147.99 407.79,153.00
             410.69,163.10 419.48,169.55 430.00,168.91
             449.17,167.73 451.07,151.06 451.00,136.00
             450.98,132.07 450.94,130.85 450.00,127.00
             450.00,127.00 428.04,127.04 428.04,127.04
             428.22,141.83 426.96,141.88 436.00,142.00 Z
           M 250.94,92.06
           C 247.99,92.06 251.00,92.12 238.06,92.06
             237.94,101.38 237.94,100.39 237.94,102.38
             237.94,102.38 237.94,152.50 237.94,152.50
             237.94,166.50 238.00,153.19 238.06,167.06
             238.06,167.06 250.06,166.94 250.06,166.94
             250.06,166.94 251.00,140.12 251.00,140.12
             251.00,140.12 254.44,135.44 254.44,135.44
             254.44,135.44 264.14,157.00 264.14,157.00
             264.14,157.00 269.63,167.01 269.63,167.01
             269.63,167.01 283.00,167.12 283.00,167.12
             269.75,135.12 273.06,141.85 269.74,135.00
             268.18,131.77 269.81,135.31 263.88,122.00
             269.25,113.00 267.86,115.21 269.20,113.00
             273.06,106.64 269.06,113.25 281.00,92.00
             281.00,92.00 268.18,92.02 268.18,92.02
             268.18,92.02 251.82,115.45 251.82,115.45
             251.82,115.45 250.94,92.06 250.94,92.06 Z
           M 362.00,130.00
           C 353.25,107.56 356.09,114.35 353.42,108.00
             352.13,104.92 347.52,94.28 345.82,92.09
             335.55,92.18 345.88,92.06 335.00,92.18
             334.91,101.45 335.19,100.01 335.18,102.00
             335.18,102.00 334.91,158.91 334.91,158.91
             334.91,160.90 334.89,159.60 334.91,167.00
             347.05,166.97 335.00,167.03 347.03,167.00
             347.00,158.31 347.00,160.24 347.00,158.25
             347.01,151.13 346.94,158.25 347.94,131.25
             347.94,131.25 365.06,167.19 365.06,167.19
             376.32,167.19 365.06,167.25 376.12,167.06
             376.12,167.06 375.94,92.06 375.94,92.06
             364.00,92.00 372.71,92.08 364.06,92.06
             364.06,92.06 363.19,129.81 363.19,129.81
             361.94,129.94 364.00,129.88 362.00,130.00 Z
           M 399.00,91.00
           C 399.00,91.00 385.00,91.00 385.00,91.00
             385.00,91.00 385.00,149.00 385.00,149.00
             385.00,152.48 384.97,149.66 384.97,167.84
             393.03,168.00 391.18,167.99 393.00,168.00
             393.00,168.00 399.00,168.00 399.00,168.00
             399.00,168.00 399.00,91.00 399.00,91.00 Z
           M 172.00,162.00
           C 172.00,162.00 66.00,162.00 66.00,162.00
             66.00,162.00 66.00,178.00 66.00,178.00
             66.00,178.00 172.00,178.00 172.00,178.00
             172.00,178.00 172.00,162.00 172.00,162.00 Z
           M 308.96,73.16M 62.84,54.97M 155.50,106.00" />
</svg>
